<svg width="395" height="167" viewBox="0 0 395 167" fill="none" xmlns="http://www.w3.org/2000/svg">
<path d="M305.346 139.084C301.869 139.084 298.765 138.814 296.033 138.275C288.624 136.535 282.208 132.825 276.786 127.146C271.364 121.468 267.369 114.276 264.803 105.572C264.389 104.204 264.079 102.898 263.872 101.655C263.665 100.411 263.52 98.8985 263.437 97.1161C263.396 95.2924 263.375 92.7639 263.375 89.5309C263.375 86.0906 263.396 83.4792 263.437 81.6969C263.52 79.8731 263.685 78.2981 263.934 76.9717C264.182 75.6453 264.555 74.0909 265.051 72.3086C270.515 53.3662 280.532 41.2629 295.102 35.9989C298.165 35.0455 301.455 34.5688 304.974 34.5688C308.45 34.5688 311.576 35.0248 314.349 35.9367C321.634 38.7552 326.663 43.9986 329.436 51.6668C330.222 54.361 330.616 57.4904 330.616 61.0551C330.616 65.0342 330.14 68.6611 329.188 71.9356C325.876 81.1374 319.564 89.7174 310.251 97.6757C304.498 102.733 299.717 105.261 295.909 105.261C295.164 105.261 294.522 105.323 293.984 105.447C293.487 105.572 293.239 105.738 293.239 105.945C293.239 106.401 293.736 107.188 294.729 108.307C295.764 109.385 296.902 110.421 298.144 111.416C299.386 112.411 300.4 113.033 301.186 113.281C302.883 113.737 304.642 113.965 306.464 113.965C309.485 113.965 312.279 113.427 314.845 112.349C317.66 111.022 320.206 110.359 322.482 110.359C325.131 110.359 327.532 111.271 329.684 113.095C332.209 115.084 333.472 117.882 333.472 121.488C333.472 125.053 332.189 128.245 329.622 131.063C327.056 133.882 323.579 136.016 319.192 137.467C315.135 138.545 310.52 139.084 305.346 139.084ZM290.693 80.2047C291.521 80.2047 293.756 78.4017 297.399 74.7956C302.863 69.4071 305.594 65.2207 305.594 62.2364C305.594 60.7028 305.284 59.9359 304.663 59.9359C304.125 59.9359 303.297 60.2054 302.18 60.7442C297.709 62.9825 294.088 67.915 291.314 75.5417C290.611 77.4898 290.259 78.8369 290.259 79.583C290.259 79.9975 290.404 80.2047 290.693 80.2047Z" fill="white"/>
<path d="M141.621 153.632C142.491 153.923 143.194 154.068 143.732 154.068C145.222 153.985 146.775 153.508 148.389 152.638C150.045 151.809 151.348 150.793 152.3 149.591C153.252 148.389 153.977 147.021 154.473 145.488C155.012 143.954 155.405 141.757 155.653 138.897C155.943 136.079 156.191 132.099 156.398 126.96C157.226 107.147 158.054 91.9971 158.882 81.5103C159.089 79.0648 159.192 77.1167 159.192 75.666C159.192 73.9665 158.964 72.35 158.509 70.8164C157.516 67.6662 155.881 65.2414 153.604 63.542C151.328 61.8011 148.844 60.9307 146.154 60.9307C143.381 60.9307 140.69 61.9876 138.082 64.1016C136.923 65.0549 135.992 66.1326 135.288 67.3346C134.585 68.4952 134.026 70.464 133.612 73.2412C133.24 75.9768 132.908 80.1632 132.619 85.8004C132.37 91.4375 132.081 99.1471 131.749 108.929C131.336 118.96 131.129 126.649 131.129 131.996C131.129 137.426 131.377 141.218 131.874 143.374C132.412 145.529 133.26 147.291 134.419 148.659C134.999 149.405 135.723 150.151 136.592 150.897C137.462 151.684 138.289 152.265 139.076 152.638C139.904 153.052 140.752 153.384 141.621 153.632Z" fill="white"/>
<path d="M179.68 161.218C180.343 161.425 181.088 161.529 181.916 161.529C184.109 161.529 187.545 160.617 192.222 158.793C194.085 158.088 196.382 157.322 199.114 156.493C201.846 155.705 204.35 155.021 206.626 154.441C208.944 153.861 211.097 153.239 213.084 152.576C215.112 151.912 216.519 151.374 217.305 150.959C219.292 149.798 220.803 148.306 221.838 146.482C222.914 144.7 223.452 142.793 223.452 140.762C223.452 136.783 221.548 133.612 217.74 131.25C215.339 129.799 212.794 129.074 210.103 129.074C209.317 129.115 207.951 129.302 206.006 129.633C204.06 129.965 202.053 130.338 199.983 130.752C197.955 131.167 196.423 131.519 195.389 131.809L194.892 131.934C194.561 131.934 194.292 131.623 194.085 131.001C193.919 130.379 193.712 129.177 193.464 127.395C192.553 120.556 191.85 111.437 191.353 100.038C190.856 88.6397 190.608 77.0961 190.608 65.4073C190.608 50.071 191.063 37.0144 191.974 26.2375L192.036 25.678C192.864 18.1756 193.278 13.2846 193.278 11.0048C193.278 10.0101 193.195 9.26396 193.029 8.76657C192.864 8.22772 192.615 7.66816 192.284 7.08786C190.09 2.36262 186.324 0 180.984 0C178.128 0 175.583 0.891164 173.348 2.67349C171.154 4.45582 169.519 6.92207 168.443 10.0722C167.573 12.6006 166.911 15.2949 166.456 18.1549C166.042 20.9734 165.752 24.9319 165.587 30.0302C165.462 35.087 165.4 42.4443 165.4 52.102V59.0033C165.4 105.924 167.449 133.219 171.547 140.887C171.961 141.716 172.168 142.379 172.168 142.876C172.168 143.581 171.94 144.576 171.485 145.861C171.071 147.187 170.864 148.472 170.864 149.716C170.864 152.285 171.63 154.607 173.161 156.679C174.734 158.793 176.907 160.306 179.68 161.218Z" fill="white"/>
<path d="M205.944 124.784C207.268 125.488 208.8 125.841 210.538 125.841C213.063 125.841 217.078 124.97 222.583 123.229C228.668 121.488 234.856 119.831 241.147 118.255C246.197 117.053 249.777 115.996 251.888 115.085C254.041 114.173 255.593 113.033 256.545 111.665C258.242 109.302 259.091 106.878 259.091 104.391C259.091 102.235 258.49 100.225 257.29 98.3597C256.131 96.4944 254.455 95.0023 252.261 93.8831C251.433 93.4686 250.667 93.1785 249.964 93.0127C249.26 92.8054 248.411 92.7018 247.418 92.7018C245.183 92.7018 242.472 92.9712 239.285 93.5101C237.091 93.8831 235.001 94.3184 233.014 94.8157C229.413 95.6862 227.053 96.1214 225.936 96.1214C225.729 96.1214 225.605 96.1007 225.563 96.0592C225.191 94.7743 225.005 89.8833 225.005 81.3861C225.005 71.2724 225.253 58.8169 225.75 44.0194C226.164 34.6933 226.37 27.7712 226.37 23.2532C226.37 20.3103 226.246 18.0927 225.998 16.6005C225.791 15.0669 225.418 13.8856 224.88 13.0566C224.384 12.2276 223.701 11.4194 222.831 10.6318C220.265 8.14485 217.533 6.90137 214.636 6.90137C212.856 6.90137 211.014 7.37804 209.11 8.33137C205.302 10.1966 202.964 13.6576 202.094 18.7145C200.77 27.5432 200.066 46.9416 199.983 76.9096C199.983 82.9612 200.045 87.6657 200.17 91.0231C200.294 94.3805 200.521 96.9504 200.853 98.7327C201.225 100.515 201.722 101.966 202.343 103.085C202.632 103.582 202.777 104.038 202.777 104.453C202.777 104.992 202.425 105.676 201.722 106.504C200.066 108.95 199.238 111.458 199.238 114.028C199.238 116.266 199.797 118.359 200.915 120.307C202.074 122.255 203.75 123.747 205.944 124.784Z" fill="white"/>
<path d="M384.011 156.182C381.734 156.182 379.478 155.394 377.243 153.819C375.753 152.783 374.491 151.56 373.456 150.151C372.131 148.451 371.014 145.882 370.103 142.441C369.151 138.835 368.013 132.493 366.688 123.416C364.867 123.499 363.563 123.561 362.777 123.602C361.99 123.644 361.287 123.685 360.666 123.727C360.045 123.727 359.176 123.727 358.058 123.727C356.692 123.727 355.471 123.623 354.395 123.416C353.36 123.209 352.077 122.836 350.546 122.297C344.999 120.307 340.363 117.654 336.638 114.338C331.671 109.282 329.188 103.044 329.188 95.6241C329.188 92.6811 329.601 89.6139 330.429 86.4223C332.375 79.1272 335.645 73.0341 340.239 68.143C344.875 63.252 350.276 60.1433 356.444 58.8169L360.107 58.0708L359.921 56.2678C359.797 55.2315 359.672 54.1331 359.548 52.9725C359.465 51.8119 359.383 50.299 359.3 48.4338C359.217 46.5271 359.093 43.9573 358.927 40.7242C358.803 37.4911 358.741 35.0663 358.741 33.4498C358.741 31.9162 358.845 30.7763 359.052 30.0302C359.258 29.2427 359.61 28.3308 360.107 27.2946C361.307 24.8076 362.922 22.9009 364.95 21.5745C367.019 20.2482 369.213 19.585 371.531 19.585C374.304 19.585 376.933 20.6005 379.416 22.6315C380.906 23.8335 382.045 25.305 382.831 27.0459C383.659 28.7453 384.3 31.4602 384.756 35.1907C385.252 38.8797 385.728 44.3303 386.184 51.5425C387.219 66.8374 388.44 81.9664 389.847 96.9297C391.296 111.852 392.558 122.981 393.634 130.317C394.545 135.747 395 139.975 395 143.001C395 145.073 394.772 146.793 394.317 148.161C393.862 149.571 393.179 150.876 392.268 152.078C389.909 154.814 387.156 156.182 384.011 156.182ZM359.424 97.8623C360.749 97.8623 361.845 97.4686 362.715 96.681H362.653C363.191 96.308 363.46 95.3754 363.46 93.8832C363.46 92.4324 363.211 90.1113 362.715 86.9197C362.425 85.6347 361.928 84.9923 361.225 84.9923C360.19 84.9923 358.989 86.0492 357.624 88.1631C356.299 90.2771 355.637 92.4946 355.637 94.8158C355.637 95.3132 355.74 95.7899 355.947 96.2458C356.485 97.3235 357.644 97.8623 359.424 97.8623Z" fill="white"/>
<path d="M88.3504 167C86.5705 167 84.7907 166.565 83.0109 165.694C80.0307 164.078 77.9404 161.425 76.74 157.736C76.3675 155.954 75.9536 147.208 75.4983 131.498C75.3327 124.493 75.0844 117.136 74.7532 109.427C73.9254 91.1473 73.3045 81.6346 72.8906 80.8886C71.8558 80.3497 70.7589 79.4793 69.6 78.2772C66.9923 75.6245 65.6885 72.6608 65.6885 69.3863C65.6885 66.1947 66.9302 63.2311 69.4137 60.4954C71.8972 57.7183 75.3741 55.5422 79.8444 53.9671C84.1077 52.7651 88.9713 52.1641 94.4349 52.1641C98.036 52.1641 101.285 52.4542 104.183 53.0345C112.213 54.9826 118.566 58.6095 123.243 63.915C127.962 69.2205 130.321 75.1893 130.321 81.8212C130.321 84.8884 129.742 88.0179 128.583 91.2095C126.555 96.1005 122.912 101.385 117.656 107.064C112.399 112.701 107.453 116.68 102.817 119.001L100.209 120.183V138.835C100.209 144.348 100.168 148.493 100.085 151.27C100.044 154.047 99.94 156.016 99.7745 157.176C99.6089 158.378 99.3605 159.29 99.0294 159.912C97.9532 162.15 96.4631 163.891 94.5591 165.135C92.6551 166.378 90.5855 167 88.3504 167ZM99.6503 90.339C99.8159 90.2561 100.209 89.8416 100.83 89.0956C101.451 88.3495 102.154 87.4583 102.941 86.4221C103.727 85.3444 104.39 84.3703 104.928 83.4999C105.466 82.6294 105.735 82.0491 105.735 81.759C105.735 81.4688 105.59 81.1165 105.3 80.702C105.052 80.2461 104.741 79.8316 104.369 79.4585C103.665 78.8368 102.734 78.2565 101.575 77.7177C100.416 77.1788 99.5675 76.9094 99.0294 76.9094C98.8225 76.9094 98.6776 76.9716 98.5948 77.0959C98.512 77.1788 98.4706 77.614 98.4706 78.4016C98.4706 80.1839 98.6155 82.6294 98.9052 85.7382C99.195 88.8054 99.4433 90.339 99.6503 90.339Z" fill="white"/>
<path d="M35.2036 150.089C33.2581 150.089 31.3334 149.84 29.4294 149.343C22.1031 147.394 15.5012 141.985 9.62355 133.115C4.4496 125.405 1.86262 118.774 1.86262 113.219C1.86262 108.784 3.51829 105.095 6.82961 102.152C7.94719 101.24 9.23033 100.494 10.679 99.914C12.1691 99.2923 13.5557 98.9814 14.8389 98.9814C16.0392 98.9814 17.4466 99.4374 19.0608 100.349C20.7165 101.261 22.0617 102.339 23.0965 103.582C24.3383 105.157 25.311 107.292 26.0146 109.986C26.5527 112.017 27.4012 114.131 28.5602 116.328C29.7606 118.525 31.023 120.411 32.3475 121.986C33.6721 123.52 34.7482 124.286 35.5761 124.286C36.9834 124.286 38.2044 123.146 39.2392 120.867C40.3154 118.587 40.8535 116.121 40.8535 113.468C40.8535 112.515 40.7707 111.561 40.6052 110.608C40.0257 106.67 38.37 103.064 35.6382 99.7897C32.9477 96.4737 28.3119 92.3702 21.7306 87.4792C14.5698 82.2151 9.39589 77.5935 6.20874 73.6143C2.06958 68.3917 0 62.6302 0 56.3299C0 50.5684 1.77984 45.1385 5.33952 40.0402C8.89919 34.9005 13.6592 31.025 19.6196 28.4137C20.9028 27.8334 22.248 27.4603 23.6553 27.2945C25.104 27.0873 27.3391 26.9836 30.3607 26.9836C32.7614 26.9836 34.5413 27.0251 35.7003 27.108C36.8592 27.1494 37.894 27.336 38.8046 27.6676C39.7152 27.9577 40.8535 28.4344 42.2194 29.0976C46.9795 31.4187 50.7461 34.8798 53.5193 39.4807C56.334 44.0401 57.7413 48.9933 57.7413 54.3403L57.6792 56.3299C57.1825 62.6717 54.492 66.8788 49.6078 68.9512C48.1177 69.573 46.6069 69.8839 45.0754 69.8839C43.5853 69.8839 42.1573 69.5937 40.7914 69.0134C39.6738 68.5575 38.9909 68.3295 38.7425 68.3295H38.6804C38.6804 68.4953 40.0878 69.6144 42.9024 71.6869C45.8412 73.9252 48.9042 76.723 52.0913 80.0804C55.3199 83.4378 57.6792 86.36 59.1693 88.847C63.9293 97.0955 66.3093 105.282 66.3093 113.406C66.3093 119.665 64.8813 125.758 62.0253 131.685C59.1693 137.364 55.2785 141.84 50.3529 145.115C45.4687 148.431 40.4189 150.089 35.2036 150.089ZM37.8733 68.0808C37.8733 67.8736 37.2317 66.941 35.9486 65.283C34.4999 63.4177 33.6514 61.5111 33.403 59.5629C33.1133 57.3247 32.8442 55.6874 32.5959 54.6512C32.3889 53.6149 32.1199 52.9518 31.7887 52.6616C31.4576 52.33 30.8781 52.1435 30.0503 52.102C29.0155 52.102 28.0221 52.5373 27.0701 53.4077C26.1595 54.2781 25.7042 55.2522 25.7042 56.3299C25.7042 57.3661 26.4906 58.6303 28.0635 60.1225C29.1397 61.1588 30.9816 62.7546 33.5893 64.9099C36.2383 67.0239 37.6664 68.0808 37.8733 68.0808Z" fill="white"/>
</svg>
